# xmcd CD database file
# Copyright (C) 1993-1998 Ti Kan
# 
# Track frame offsets:
#     182
#     18452
#     33135
#     49510
#     68490
#     84545
#     100350
#     116670
#     133020
#     145667
#     159625
#     178465
# 
# Disc length: 2587 seconds
# 
# Revision: 1
# Processed by: cddbd v1.4b41PL1 Copyright (c) Steve Scherf et al.
# Submitted via: DiscPlay 4.0.4
# 
DISCID=9e0a190c
DTITLE=Tom Jones - The Many Sides of Tom Jones  (Country)
DYEAR=1900
DGENRE=
TTITLE0=A Woman's Touch
TTITLE1=Darlin'
TTITLE2=I've Been Rained On Too
TTITLE3=I'ts Four In The Morning
TTITLE4=Memphis, Tennessee
TTITLE5=Not Another Heart Song
TTITLE6=Say You'll Stay Until Tomorrow
TTITLE7=Touch Me (Then I'll Be Your Fool Once More)
TTITLE8=What In The World's Come Over You
TTITLE9=Ghost Riders In The Sky
TTITLE10=Cool Water
TTITLE11=Lady Lay Down
EXTD=
EXTT0=
EXTT1=
EXTT2=
EXTT3=
EXTT4=
EXTT5=
EXTT6=
EXTT7=
EXTT8=
EXTT9=
EXTT10=
EXTT11=
PLAYORDER=
